<svg id="my-svg" width="100%" xmlns="http://www.w3.org/2000/svg" xmlns:xlink="http://www.w3.org/1999/xlink" class="flowchart" style="max-width: 1015.74px; background-color: white;" viewBox="0 0 1015.744873046875 642" role="graphics-document document" aria-roledescription="flowchart-v2"><style>#my-svg{font-family:"trebuchet ms",verdana,arial,sans-serif;font-size:14px;fill:#333;}@keyframes edge-animation-frame{from{stroke-dashoffset:0;}}@keyframes dash{to{stroke-dashoffset:0;}}#my-svg .edge-animation-slow{stroke-dasharray:9,5!important;stroke-dashoffset:900;animation:dash 50s linear infinite;stroke-linecap:round;}#my-svg .edge-animation-fast{stroke-dasharray:9,5!important;stroke-dashoffset:900;animation:dash 20s linear infinite;stroke-linecap:round;}#my-svg .error-icon{fill:#552222;}#my-svg .error-text{fill:#552222;stroke:#552222;}#my-svg .edge-thickness-normal{stroke-width:1px;}#my-svg .edge-thickness-thick{stroke-width:3.5px;}#my-svg .edge-pattern-solid{stroke-dasharray:0;}#my-svg .edge-thickness-invisible{stroke-width:0;fill:none;}#my-svg .edge-pattern-dashed{stroke-dasharray:3;}#my-svg .edge-pattern-dotted{stroke-dasharray:2;}#my-svg .marker{fill:#333333;stroke:#333333;}#my-svg .marker.cross{stroke:#333333;}#my-svg svg{font-family:"trebuchet ms",verdana,arial,sans-serif;font-size:14px;}#my-svg p{margin:0;}#my-svg .label{font-family:"trebuchet ms",verdana,arial,sans-serif;color:#333;}#my-svg .cluster-label text{fill:#333;}#my-svg .cluster-label span{color:#333;}#my-svg .cluster-label span p{background-color:transparent;}#my-svg .label text,#my-svg span{fill:#333;color:#333;}#my-svg .node rect,#my-svg .node circle,#my-svg .node ellipse,#my-svg .node polygon,#my-svg .node path{fill:#ECECFF;stroke:#9370DB;stroke-width:1px;}#my-svg .rough-node .label text,#my-svg .node .label text,#my-svg .image-shape .label,#my-svg .icon-shape .label{text-anchor:middle;}#my-svg .node .katex path{fill:#000;stroke:#000;stroke-width:1px;}#my-svg .rough-node .label,#my-svg .node .label,#my-svg .image-shape .label,#my-svg .icon-shape .label{text-align:center;}#my-svg .node.clickable{cursor:pointer;}#my-svg .root .anchor path{fill:#333333!important;stroke-width:0;stroke:#333333;}#my-svg .arrowheadPath{fill:#333333;}#my-svg .edgePath .path{stroke:#333333;stroke-width:2.0px;}#my-svg .flowchart-link{stroke:#333333;fill:none;}#my-svg .edgeLabel{background-color:rgba(232,232,232, 0.8);text-align:center;}#my-svg .edgeLabel p{background-color:rgba(232,232,232, 0.8);}#my-svg .edgeLabel rect{opacity:0.5;background-color:rgba(232,232,232, 0.8);fill:rgba(232,232,232, 0.8);}#my-svg .labelBkg{background-color:rgba(232, 232, 232, 0.5);}#my-svg .cluster rect{fill:#ffffde;stroke:#aaaa33;stroke-width:1px;}#my-svg .cluster text{fill:#333;}#my-svg .cluster span{color:#333;}#my-svg div.mermaidTooltip{position:absolute;text-align:center;max-width:200px;padding:2px;font-family:"trebuchet ms",verdana,arial,sans-serif;font-size:12px;background:hsl(80, 100%, 96.2745098039%);border:1px solid #aaaa33;border-radius:2px;pointer-events:none;z-index:100;}#my-svg .flowchartTitleText{text-anchor:middle;font-size:18px;fill:#333;}#my-svg rect.text{fill:none;stroke-width:0;}#my-svg .icon-shape,#my-svg .image-shape{background-color:rgba(232,232,232, 0.8);text-align:center;}#my-svg .icon-shape p,#my-svg .image-shape p{background-color:rgba(232,232,232, 0.8);padding:2px;}#my-svg .icon-shape rect,#my-svg .image-shape rect{opacity:0.5;background-color:rgba(232,232,232, 0.8);fill:rgba(232,232,232, 0.8);}#my-svg .label-icon{display:inline-block;height:1em;overflow:visible;vertical-align:-0.125em;}#my-svg .node .label-icon path{fill:currentColor;stroke:revert;stroke-width:revert;}#my-svg :root{--mermaid-font-family:"trebuchet ms",verdana,arial,sans-serif;}</style><g><marker id="my-svg_flowchart-v2-pointEnd" class="marker flowchart-v2" viewBox="0 0 10 10" refX="5" refY="5" markerUnits="userSpaceOnUse" markerWidth="8" markerHeight="8" orient="auto"><path d="M 0 0 L 10 5 L 0 10 z" class="arrowMarkerPath" style="stroke-width: 1; stroke-dasharray: 1, 0;"/></marker><marker id="my-svg_flowchart-v2-pointStart" class="marker flowchart-v2" viewBox="0 0 10 10" refX="4.5" refY="5" markerUnits="userSpaceOnUse" markerWidth="8" markerHeight="8" orient="auto"><path d="M 0 5 L 10 10 L 10 0 z" class="arrowMarkerPath" style="stroke-width: 1; stroke-dasharray: 1, 0;"/></marker><marker id="my-svg_flowchart-v2-circleEnd" class="marker flowchart-v2" viewBox="0 0 10 10" refX="11" refY="5" markerUnits="userSpaceOnUse" markerWidth="11" markerHeight="11" orient="auto"><circle cx="5" cy="5" r="5" class="arrowMarkerPath" style="stroke-width: 1; stroke-dasharray: 1, 0;"/></marker><marker id="my-svg_flowchart-v2-circleStart" class="marker flowchart-v2" viewBox="0 0 10 10" refX="-1" refY="5" markerUnits="userSpaceOnUse" markerWidth="11" markerHeight="11" orient="auto"><circle cx="5" cy="5" r="5" class="arrowMarkerPath" style="stroke-width: 1; stroke-dasharray: 1, 0;"/></marker><marker id="my-svg_flowchart-v2-crossEnd" class="marker cross flowchart-v2" viewBox="0 0 11 11" refX="12" refY="5.2" markerUnits="userSpaceOnUse" markerWidth="11" markerHeight="11" orient="auto"><path d="M 1,1 l 9,9 M 10,1 l -9,9" class="arrowMarkerPath" style="stroke-width: 2; stroke-dasharray: 1, 0;"/></marker><marker id="my-svg_flowchart-v2-crossStart" class="marker cross flowchart-v2" viewBox="0 0 11 11" refX="-1" refY="5.2" markerUnits="userSpaceOnUse" markerWidth="11" markerHeight="11" orient="auto"><path d="M 1,1 l 9,9 M 10,1 l -9,9" class="arrowMarkerPath" style="stroke-width: 2; stroke-dasharray: 1, 0;"/></marker><g class="root"><g class="clusters"><g class="cluster" id="APIs" data-look="classic"><rect style="" x="691.8854217529297" y="136.5" width="315.859375" height="390"/><g class="cluster-label" transform="translate(809.9947967529297, 136.5)"><foreignObject width="79.640625" height="21"><div xmlns="http://www.w3.org/1999/xhtml" style="display: table-cell; white-space: nowrap; line-height: 1.5; max-width: 200px; text-align: center;"><span class="nodeLabel"><p>API Endpoint</p></span></div></foreignObject></g></g><g class="cluster" id="Router" data-look="classic"><rect style="" x="289.63802337646484" y="28.5" width="214.765625" height="565"/><g class="cluster-label" transform="translate(293.63802337646484, 28.5)"><foreignObject width="206.765625" height="21"><div xmlns="http://www.w3.org/1999/xhtml" style="display: table; white-space: break-spaces; line-height: 1.5; max-width: 200px; text-align: center; width: 200px;"><span class="nodeLabel"><p>client.go::GetTerminalListSearch</p></span></div></foreignObject></g></g><g class="cluster" id="Input" data-look="classic"><rect style="" x="8" y="8" width="248.359375" height="626"/><g class="cluster-label" transform="translate(94.890625, 8)"><foreignObject width="74.578125" height="21"><div xmlns="http://www.w3.org/1999/xhtml" style="display: table-cell; white-space: nowrap; line-height: 1.5; max-width: 200px; text-align: center;"><span class="nodeLabel"><p>Search Type</p></span></div></foreignObject></g></g></g><g class="edgePaths"><path d="M231.359,68.5L235.526,68.5C239.693,68.5,248.026,68.5,256.359,68.5C264.693,68.5,273.026,68.5,281.359,68.5C289.693,68.5,298.026,68.5,316.083,107.039C334.14,145.579,361.921,222.658,375.811,261.197L389.702,299.737" id="L_T0_Decision_0" class="edge-thickness-normal edge-pattern-solid edge-thickness-normal edge-pattern-solid flowchart-link" style=";" data-edge="true" data-et="edge" data-id="L_T0_Decision_0" data-points="W3sieCI6MjMxLjM1OTM3NSwieSI6NjguNX0seyJ4IjoyNTYuMzU5Mzc1LCJ5Ijo2OC41fSx7IngiOjI4MS4zNTkzNzUsInkiOjY4LjV9LHsieCI6MzA2LjM1OTM3NSwieSI6NjguNX0seyJ4IjozOTEuMDU3ODQwNjQ1NjY3MzQsInkiOjMwMy41MDAwMDAwMDAwMDAwNn1d" marker-end="url(#my-svg_flowchart-v2-pointEnd)"/><path d="M216.141,169.5L222.844,169.5C229.547,169.5,242.953,169.5,253.823,169.5C264.693,169.5,273.026,169.5,281.359,169.5C289.693,169.5,298.026,169.5,315.248,191.262C332.47,213.023,358.581,256.547,371.636,278.308L384.691,300.07" id="L_T1_Decision_0" class="edge-thickness-normal edge-pattern-solid edge-thickness-normal edge-pattern-solid flowchart-link" style=";" data-edge="true" data-et="edge" data-id="L_T1_Decision_0" data-points="W3sieCI6MjE2LjE0MDYyNSwieSI6MTY5LjV9LHsieCI6MjU2LjM1OTM3NSwieSI6MTY5LjV9LHsieCI6MjgxLjM1OTM3NSwieSI6MTY5LjV9LHsieCI6MzA2LjM1OTM3NSwieSI6MTY5LjV9LHsieCI6Mzg2Ljc0OTE3NzE1ODQ2OTEsInkiOjMwMy41MDAwMDAwMDAwMDAxfV0=" marker-end="url(#my-svg_flowchart-v2-pointEnd)"/><path d="M206.008,270.5L214.4,270.5C222.792,270.5,239.576,270.5,252.134,270.5C264.693,270.5,273.026,270.5,281.359,270.5C289.693,270.5,298.026,270.5,311.419,275.674C324.812,280.848,343.264,291.196,352.491,296.37L361.717,301.544" id="L_T2_Decision_0" class="edge-thickness-normal edge-pattern-solid edge-thickness-normal edge-pattern-solid flowchart-link" style=";" data-edge="true" data-et="edge" data-id="L_T2_Decision_0" data-points="W3sieCI6MjA2LjAwNzgxMjUsInkiOjI3MC41fSx7IngiOjI1Ni4zNTkzNzUsInkiOjI3MC41fSx7IngiOjI4MS4zNTkzNzUsInkiOjI3MC41fSx7IngiOjMwNi4zNTkzNzUsInkiOjI3MC41fSx7IngiOjM2NS4yMDU4NTk3MjI0Nzc1NiwieSI6MzAzLjUwMDAwMDAwMDAwMDA2fV0=" marker-end="url(#my-svg_flowchart-v2-pointEnd)"/><path d="M197.25,371.5L207.102,371.5C216.953,371.5,236.656,371.5,250.674,371.5C264.693,371.5,273.026,371.5,281.359,371.5C289.693,371.5,298.026,371.5,311.415,366.485C324.804,361.47,343.248,351.441,352.47,346.426L361.692,341.411" id="L_T3_Decision_0" class="edge-thickness-normal edge-pattern-solid edge-thickness-normal edge-pattern-solid flowchart-link" style=";" data-edge="true" data-et="edge" data-id="L_T3_Decision_0" data-points="W3sieCI6MTk3LjI1LCJ5IjozNzEuNX0seyJ4IjoyNTYuMzU5Mzc1LCJ5IjozNzEuNX0seyJ4IjoyODEuMzU5Mzc1LCJ5IjozNzEuNX0seyJ4IjozMDYuMzU5Mzc1LCJ5IjozNzEuNX0seyJ4IjozNjUuMjA1ODU5NzIyNDc3MTYsInkiOjMzOS41MDAwMDAwMDAwMDAwNn1d" marker-end="url(#my-svg_flowchart-v2-pointEnd)"/><path d="M196.57,472.5L206.535,472.5C216.5,472.5,236.43,472.5,250.561,472.5C264.693,472.5,273.026,472.5,281.359,472.5C289.693,472.5,298.026,472.5,315.246,450.904C332.466,429.308,358.573,386.116,371.627,364.519L384.68,342.923" id="L_T4_Decision_0" class="edge-thickness-normal edge-pattern-solid edge-thickness-normal edge-pattern-solid flowchart-link" style=";" data-edge="true" data-et="edge" data-id="L_T4_Decision_0" data-points="W3sieCI6MTk2LjU3MDMxMjUsInkiOjQ3Mi41fSx7IngiOjI1Ni4zNTkzNzUsInkiOjQ3Mi41fSx7IngiOjI4MS4zNTkzNzUsInkiOjQ3Mi41fSx7IngiOjMwNi4zNTkzNzUsInkiOjQ3Mi41fSx7IngiOjM4Ni43NDkxNzcxNTg0Njg5NywieSI6MzM5LjUwMDAwMDAwMDAwMDE3fV0=" marker-end="url(#my-svg_flowchart-v2-pointEnd)"/><path d="M198.273,573.5L207.954,573.5C217.635,573.5,236.997,573.5,250.845,573.5C264.693,573.5,273.026,573.5,281.359,573.5C289.693,573.5,298.026,573.5,316.082,535.127C334.138,496.754,361.917,420.007,375.807,381.634L389.696,343.261" id="L_T5_Decision_0" class="edge-thickness-normal edge-pattern-solid edge-thickness-normal edge-pattern-solid flowchart-link" style=";" data-edge="true" data-et="edge" data-id="L_T5_Decision_0" data-points="W3sieCI6MTk4LjI3MzQzNzUsInkiOjU3My41fSx7IngiOjI1Ni4zNTkzNzUsInkiOjU3My41fSx7IngiOjI4MS4zNTkzNzUsInkiOjU3My41fSx7IngiOjMwNi4zNTkzNzUsInkiOjU3My41fSx7IngiOjM5MS4wNTc4NDA2NDU2NjcyLCJ5IjozMzkuNTAwMDAwMDAwMDAwMDZ9XQ==" marker-end="url(#my-svg_flowchart-v2-pointEnd)"/><path d="M415.163,303.5L427.25,291C439.336,278.5,463.509,253.5,492.613,241C521.716,228.5,555.75,228.5,589.784,228.5C623.818,228.5,657.852,228.5,681.242,228.5C704.633,228.5,717.38,228.5,723.754,228.5L730.128,228.5" id="L_Decision_NewPath_0" class="edge-thickness-normal edge-pattern-solid edge-thickness-normal edge-pattern-solid flowchart-link" style=";" data-edge="true" data-et="edge" data-id="L_Decision_NewPath_0" data-points="W3sieCI6NDE1LjE2MzA2NjEwMTA3NDEsInkiOjMwMy41MDAwMDAwMDAwMDAxfSx7IngiOjQ4Ny42ODIyOTY3NTI5Mjk3LCJ5IjoyMjguNX0seyJ4Ijo1ODkuNzgzODU5MjUyOTI5NywieSI6MjI4LjV9LHsieCI6NjkxLjg4NTQyMTc1MjkyOTcsInkiOjIyOC41fSx7IngiOjczNC4xMjc2MDkyNTI5Mjk3LCJ5IjoyMjguNX1d" marker-end="url(#my-svg_flowchart-v2-pointEnd)"/><path d="M415.163,339.5L427.25,351.833C439.336,364.167,463.509,388.833,492.613,401.167C521.716,413.5,555.75,413.5,589.784,413.5C623.818,413.5,657.852,413.5,678.368,413.5C698.885,413.5,705.885,413.5,709.385,413.5L712.885,413.5" id="L_Decision_OldPath_0" class="edge-thickness-normal edge-pattern-solid edge-thickness-normal edge-pattern-solid flowchart-link" style=";" data-edge="true" data-et="edge" data-id="L_Decision_OldPath_0" data-points="W3sieCI6NDE1LjE2MzA2NjEwMTA3NDQsInkiOjMzOS41MDAwMDAwMDAwMDAxN30seyJ4Ijo0ODcuNjgyMjk2NzUyOTI5NywieSI6NDEzLjV9LHsieCI6NTg5Ljc4Mzg1OTI1MjkyOTcsInkiOjQxMy41fSx7IngiOjY5MS44ODU0MjE3NTI5Mjk3LCJ5Ijo0MTMuNX0seyJ4Ijo3MTYuODg1NDIxNzUyOTI5NywieSI6NDEzLjV9XQ==" marker-end="url(#my-svg_flowchart-v2-pointEnd)"/></g><g class="edgeLabels"><g class="edgeLabel"><g class="label" data-id="L_T0_Decision_0" transform="translate(0, 0)"><foreignObject width="0" height="0"><div xmlns="http://www.w3.org/1999/xhtml" class="labelBkg" style="display: table-cell; white-space: nowrap; line-height: 1.5; max-width: 200px; text-align: center;"><span class="edgeLabel"></span></div></foreignObject></g></g><g class="edgeLabel"><g class="label" data-id="L_T1_Decision_0" transform="translate(0, 0)"><foreignObject width="0" height="0"><div xmlns="http://www.w3.org/1999/xhtml" class="labelBkg" style="display: table-cell; white-space: nowrap; line-height: 1.5; max-width: 200px; text-align: center;"><span class="edgeLabel"></span></div></foreignObject></g></g><g class="edgeLabel"><g class="label" data-id="L_T2_Decision_0" transform="translate(0, 0)"><foreignObject width="0" height="0"><div xmlns="http://www.w3.org/1999/xhtml" class="labelBkg" style="display: table-cell; white-space: nowrap; line-height: 1.5; max-width: 200px; text-align: center;"><span class="edgeLabel"></span></div></foreignObject></g></g><g class="edgeLabel"><g class="label" data-id="L_T3_Decision_0" transform="translate(0, 0)"><foreignObject width="0" height="0"><div xmlns="http://www.w3.org/1999/xhtml" class="labelBkg" style="display: table-cell; white-space: nowrap; line-height: 1.5; max-width: 200px; text-align: center;"><span class="edgeLabel"></span></div></foreignObject></g></g><g class="edgeLabel"><g class="label" data-id="L_T4_Decision_0" transform="translate(0, 0)"><foreignObject width="0" height="0"><div xmlns="http://www.w3.org/1999/xhtml" class="labelBkg" style="display: table-cell; white-space: nowrap; line-height: 1.5; max-width: 200px; text-align: center;"><span class="edgeLabel"></span></div></foreignObject></g></g><g class="edgeLabel"><g class="label" data-id="L_T5_Decision_0" transform="translate(0, 0)"><foreignObject width="0" height="0"><div xmlns="http://www.w3.org/1999/xhtml" class="labelBkg" style="display: table-cell; white-space: nowrap; line-height: 1.5; max-width: 200px; text-align: center;"><span class="edgeLabel"></span></div></foreignObject></g></g><g class="edgeLabel" transform="translate(589.7838592529297, 228.5)"><g class="label" data-id="L_Decision_NewPath_0" transform="translate(-43.859375, -10.5)"><foreignObject width="87.71875" height="21"><div xmlns="http://www.w3.org/1999/xhtml" class="labelBkg" style="display: table-cell; white-space: nowrap; line-height: 1.5; max-width: 200px; text-align: center;"><span class="edgeLabel"><p>SN (0), CSI (4)</p></span></div></foreignObject></g></g><g class="edgeLabel" transform="translate(589.7838592529297, 413.5)"><g class="label" data-id="L_Decision_OldPath_0" transform="translate(-77.1015625, -21)"><foreignObject width="154.203125" height="42"><div xmlns="http://www.w3.org/1999/xhtml" class="labelBkg" style="display: table-cell; white-space: nowrap; line-height: 1.5; max-width: 200px; text-align: center;"><span class="edgeLabel"><p>Merchant (1), Group (2),<br />TID (3), MID (5)</p></span></div></foreignObject></g></g></g><g class="nodes"><g class="node default" id="flowchart-T0-0" transform="translate(132.1796875, 68.5)"><rect class="basic label-container" style="" x="-99.1796875" y="-25.5" width="198.359375" height="51"/><g class="label" style="" transform="translate(-69.1796875, -10.5)"><rect/><foreignObject width="138.359375" height="21"><div xmlns="http://www.w3.org/1999/xhtml" style="display: table-cell; white-space: nowrap; line-height: 1.5; max-width: 200px; text-align: center;"><span class="nodeLabel"><p>Type 0: Serial Number</p></span></div></foreignObject></g></g><g class="node default" id="flowchart-T1-1" transform="translate(132.1796875, 169.5)"><rect class="basic label-container" style="" x="-83.9609375" y="-25.5" width="167.921875" height="51"/><g class="label" style="" transform="translate(-53.9609375, -10.5)"><rect/><foreignObject width="107.921875" height="21"><div xmlns="http://www.w3.org/1999/xhtml" style="display: table-cell; white-space: nowrap; line-height: 1.5; max-width: 200px; text-align: center;"><span class="nodeLabel"><p>Type 1: Merchant</p></span></div></foreignObject></g></g><g class="node default" id="flowchart-T2-2" transform="translate(132.1796875, 270.5)"><rect class="basic label-container" style="" x="-73.828125" y="-25.5" width="147.65625" height="51"/><g class="label" style="" transform="translate(-43.828125, -10.5)"><rect/><foreignObject width="87.65625" height="21"><div xmlns="http://www.w3.org/1999/xhtml" style="display: table-cell; white-space: nowrap; line-height: 1.5; max-width: 200px; text-align: center;"><span class="nodeLabel"><p>Type 2: Group</p></span></div></foreignObject></g></g><g class="node default" id="flowchart-T3-3" transform="translate(132.1796875, 371.5)"><rect class="basic label-container" style="" x="-65.0703125" y="-25.5" width="130.140625" height="51"/><g class="label" style="" transform="translate(-35.0703125, -10.5)"><rect/><foreignObject width="70.140625" height="21"><div xmlns="http://www.w3.org/1999/xhtml" style="display: table-cell; white-space: nowrap; line-height: 1.5; max-width: 200px; text-align: center;"><span class="nodeLabel"><p>Type 3: TID</p></span></div></foreignObject></g></g><g class="node default" id="flowchart-T4-4" transform="translate(132.1796875, 472.5)"><rect class="basic label-container" style="" x="-64.390625" y="-25.5" width="128.78125" height="51"/><g class="label" style="" transform="translate(-34.390625, -10.5)"><rect/><foreignObject width="68.78125" height="21"><div xmlns="http://www.w3.org/1999/xhtml" style="display: table-cell; white-space: nowrap; line-height: 1.5; max-width: 200px; text-align: center;"><span class="nodeLabel"><p>Type 4: CSI</p></span></div></foreignObject></g></g><g class="node default" id="flowchart-T5-5" transform="translate(132.1796875, 573.5)"><rect class="basic label-container" style="" x="-66.09375" y="-25.5" width="132.1875" height="51"/><g class="label" style="" transform="translate(-36.09375, -10.5)"><rect/><foreignObject width="72.1875" height="21"><div xmlns="http://www.w3.org/1999/xhtml" style="display: table-cell; white-space: nowrap; line-height: 1.5; max-width: 200px; text-align: center;"><span class="nodeLabel"><p>Type 5: MID</p></span></div></foreignObject></g></g><g class="node default" id="flowchart-Decision-6" transform="translate(397.02083587646484, 321)"><g class="basic label-container"><path d="M-56.66145833333333 -18 C-45.09860789469372 -18, -33.535757456054114 -18, 0 -18 C20.18990933625778 -18, 40.37981867251556 -18, 56.66145833333333 -18 C59.745747107260605 -11.831422452145441, 62.83003588118789 -5.662844904290882, 65.66145833333333 0 C62.17636034911615 6.970195968434356, 58.691262364898975 13.940391936868712, 56.66145833333333 18 C37.59952980966875 18, 18.537601286004183 18, 0 18 C-22.166820164589744 18, -44.33364032917949 18, -56.66145833333333 18 C-59.487425587653114 12.348065491360432, -62.3133928419729 6.696130982720863, -65.66145833333333 0 C-63.76812325930999 -3.786670148046675, -61.874788185286654 -7.57334029609335, -56.66145833333333 -18" stroke="none" stroke-width="0" fill="#ECECFF" style=""/><path d="M-56.66145833333333 -18 C-42.603433864983465 -18, -28.5454093966336 -18, 0 -18 M-56.66145833333333 -18 C-35.30302941566872 -18, -13.9446004980041 -18, 0 -18 M0 -18 C14.346615925217652 -18, 28.693231850435303 -18, 56.66145833333333 -18 M0 -18 C21.73802687193598 -18, 43.47605374387196 -18, 56.66145833333333 -18 M56.66145833333333 -18 C59.86125972578702 -11.600397215092611, 63.061061118240715 -5.200794430185223, 65.66145833333333 0 M56.66145833333333 -18 C60.24492032166781 -10.833076023331031, 63.8283823100023 -3.666152046662063, 65.66145833333333 0 M65.66145833333333 0 C63.36766507420615 4.587586518254349, 61.07387181507898 9.175173036508697, 56.66145833333333 18 M65.66145833333333 0 C63.75611407371502 3.810688519236627, 61.8507698140967 7.621377038473254, 56.66145833333333 18 M56.66145833333333 18 C42.63697842416286 18, 28.612498514992392 18, 0 18 M56.66145833333333 18 C35.162414230683225 18, 13.66337012803313 18, 0 18 M0 18 C-17.3963849044996 18, -34.7927698089992 18, -56.66145833333333 18 M0 18 C-11.679158098989722 18, -23.358316197979445 18, -56.66145833333333 18 M-56.66145833333333 18 C-59.544028031589114 12.234860603488432, -62.4265977298449 6.469721206976864, -65.66145833333333 0 M-56.66145833333333 18 C-59.741130545835794 11.840655574995068, -62.82080275833826 5.6813111499901385, -65.66145833333333 0 M-65.66145833333333 0 C-62.28324065596743 -6.7564353547317895, -58.90502297860154 -13.512870709463579, -56.66145833333333 -18 M-65.66145833333333 0 C-62.66408258946663 -5.994751487733401, -59.666706845599926 -11.989502975466802, -56.66145833333333 -18" stroke="#9370DB" stroke-width="1.3" fill="none" stroke-dasharray="0 0" style=""/></g><g class="label" style="" transform="translate(-37.53125, -10.5)"><rect/><foreignObject width="75.0625" height="21"><div xmlns="http://www.w3.org/1999/xhtml" style="display: table-cell; white-space: nowrap; line-height: 1.5; max-width: 200px; text-align: center;"><span class="nodeLabel"><p>Query Type?</p></span></div></foreignObject></g></g><g class="node default" id="flowchart-NewPath-7" transform="translate(849.8151092529297, 228.5)"><rect class="basic label-container" style="" x="-115.6875" y="-57" width="231.375" height="114"/><g class="label" style="" transform="translate(-85.6875, -42)"><rect/><foreignObject width="171.375" height="84"><div xmlns="http://www.w3.org/1999/xhtml" style="display: table-cell; white-space: nowrap; line-height: 1.5; max-width: 200px; text-align: center;"><span class="nodeLabel"><p>NEW: doSignedPost()<br />POST /v1/tps/terminal/list<br />Auth: HMAC-SHA256<br />Stateless, faster</p></span></div></foreignObject></g></g><g class="node default" id="flowchart-OldPath-8" transform="translate(849.8151092529297, 413.5)"><rect class="basic label-container" style="" x="-132.9296875" y="-78" width="265.859375" height="156"/><g class="label" style="" transform="translate(-102.9296875, -63)"><rect/><foreignObject width="205.859375" height="126"><div xmlns="http://www.w3.org/1999/xhtml" style="display: table; white-space: break-spaces; line-height: 1.5; max-width: 200px; text-align: center; width: 200px;"><span class="nodeLabel"><p>OLD: doPost(session)<br />POST /market/manage/terminal/page<br />Auth: Session token<br />Supports merchant/group search</p></span></div></foreignObject></g></g></g></g></g></svg>